<?xml version="1.0" encoding="utf-8"?>
<!-- Generator: Adobe Illustrator 16.0.0, SVG Export Plug-In . SVG Version: 6.00 Build 0)  -->
<!DOCTYPE svg PUBLIC "-//W3C//DTD SVG 1.1//EN" "http://www.w3.org/Graphics/SVG/1.1/DTD/svg11.dtd">
<svg version="1.1" id="图层_1" xmlns="http://www.w3.org/2000/svg" xmlns:xlink="http://www.w3.org/1999/xlink" x="0px" y="0px"
	 width="595.281px" height="841.89px" viewBox="0 0 595.281 841.89" enable-background="new 0 0 595.281 841.89"
	 xml:space="preserve">
<path opacity="0.8" fill="#B9CEEA" enable-background="new    " d="M298.871,501.107c21.576,0,39.065,5.264,39.065,11.75
	c0,6.491-17.489,11.756-39.065,11.756c-21.578,0-39.07-5.265-39.07-11.756C259.801,506.371,277.293,501.107,298.871,501.107z"/>
<path fill="#5985AA" d="M298.866,507.752c9.382,0,16.983,2.283,16.983,5.104c0,2.827-7.602,5.109-16.983,5.109
	c-9.378,0-16.981-2.282-16.981-5.109C281.884,510.036,289.488,507.752,298.866,507.752z"/>
<linearGradient id="SVGID_1_" gradientUnits="userSpaceOnUse" x1="298.3794" y1="517.7837" x2="298.3794" y2="327.2901" gradientTransform="matrix(1 0 0 -1 0.04 840.9844)">
	<stop  offset="0" style="stop-color:#15FFE8"/>
	<stop  offset="0.7931" style="stop-color:#4237FF"/>
</linearGradient>
<path fill="url(#SVGID_1_)" d="M298.407,316.353c-34.539,0-62.544,28.008-62.544,62.546c0,13.947,4.566,26.854,12.294,37.253
	c10.307,13.881,43.492,63.608,49.369,96.092h1.9c6.075-32.414,38.2-81.757,48.554-95.164c8.155-10.554,12.998-23.802,12.998-38.178
	C360.947,344.337,332.949,316.353,298.407,316.353z M298.417,407.574c-14.764,0-26.731-11.967-26.731-26.73
	c0-14.76,11.968-26.732,26.731-26.732c14.759,0,26.729,11.972,26.729,26.732C325.146,395.61,313.176,407.574,298.417,407.574z"/>
</svg>
