<?xml version="1.0" encoding="utf-8"?>
<!-- Generator: Adobe Illustrator 16.0.0, SVG Export Plug-In . SVG Version: 6.00 Build 0)  -->
<!DOCTYPE svg PUBLIC "-//W3C//DTD SVG 1.1//EN" "http://www.w3.org/Graphics/SVG/1.1/DTD/svg11.dtd">
<svg version="1.1" id="图层_1" xmlns="http://www.w3.org/2000/svg" xmlns:xlink="http://www.w3.org/1999/xlink" x="0px" y="0px"
	 width="595.28px" height="841.89px" viewBox="0 0 595.28 841.89" enable-background="new 0 0 595.28 841.89" xml:space="preserve">
<path fill="#F75069" d="M322.033,414.353c0-13.393-10.856-24.25-24.249-24.25s-24.249,10.857-24.249,24.25
	c0,9.876,5.906,18.366,14.377,22.147c-0.002,0.004-0.003,0.007-0.005,0.01c4.91,2.283,8.45,6.999,9.068,12.604
	c0.002,0.016,0.004,0.031,0.005,0.047c0.021,0.512,0.435,0.924,0.952,0.924c0.464,0,0.831-0.335,0.922-0.771
	c0.007-0.082,0.019-0.163,0.027-0.244c0.592-5.66,4.163-10.427,9.121-12.713c-0.002-0.003-0.004-0.007-0.006-0.011
	C316.285,432.49,322.033,424.096,322.033,414.353z"/>
<circle fill="#FFFFFF" cx="297.992" cy="414.353" r="21.707"/>
<text transform="matrix(1 0 0 1 286.1948 421.415)" fill="#F75069" font-family="'MicrosoftYaHei-Bold'" font-size="23.5952">巡</text>
</svg>
