<?xml version="1.0" encoding="utf-8"?>
<!-- Generator: Adobe Illustrator 16.0.0, SVG Export Plug-In . SVG Version: 6.00 Build 0)  -->
<!DOCTYPE svg PUBLIC "-//W3C//DTD SVG 1.1//EN" "http://www.w3.org/Graphics/SVG/1.1/DTD/svg11.dtd">
<svg version="1.1" id="图层_1" xmlns="http://www.w3.org/2000/svg" xmlns:xlink="http://www.w3.org/1999/xlink" x="0px" y="0px"
	 width="595.28px" height="841.89px" viewBox="0 0 595.28 841.89" enable-background="new 0 0 595.28 841.89" xml:space="preserve">
<path fill="#3A80FF" d="M321.626,414.852c0-13.393-10.856-24.25-24.249-24.25s-24.249,10.857-24.249,24.25
	c0,9.875,5.906,18.367,14.377,22.148c-0.002,0.004-0.003,0.006-0.005,0.01c4.91,2.282,8.45,6.998,9.068,12.604
	c0.002,0.016,0.004,0.031,0.005,0.047c0.021,0.512,0.435,0.923,0.952,0.923c0.464,0,0.831-0.335,0.922-0.771
	c0.007-0.082,0.019-0.162,0.027-0.244c0.592-5.66,4.163-10.426,9.121-12.713c-0.002-0.003-0.004-0.006-0.006-0.01
	C315.878,432.99,321.626,424.595,321.626,414.852z"/>
<circle fill="#FFFFFF" cx="297.585" cy="414.852" r="21.707"/>
<text transform="matrix(1 0 0 1 278.8906 422.6563)" fill="#3A80FF" font-family="'MicrosoftYaHei-Bold'" font-size="18.2422">已巡</text>
</svg>
